<svg width="72" height="72" viewBox="0 0 72 72" fill="none" xmlns="http://www.w3.org/2000/svg">
<path d="M35.9991 48.9591C28.7991 48.9591 23.0391 43.1991 23.0391 35.9991C23.0391 28.7991 28.7991 23.0391 35.9991 23.0391C43.1991 23.0391 48.9591 28.7991 48.9591 35.9991C48.9591 43.1991 43.1991 48.9591 35.9991 48.9591ZM35.9991 25.9191C30.3831 25.9191 25.9191 30.3831 25.9191 35.9991C25.9191 41.6151 30.3831 46.0791 35.9991 46.0791C41.6151 46.0791 46.0791 41.6151 46.0791 35.9991C46.0791 30.3831 41.6151 25.9191 35.9991 25.9191Z" fill="white"/>
<path d="M39.8886 63.3606H32.1126L29.9526 56.7366C28.5126 56.3046 27.0726 55.7286 25.7766 55.0086L19.4406 58.1766L13.9686 52.7046L17.1366 46.3686C16.4166 45.0726 15.8406 43.6326 15.4086 42.1926L8.64062 39.8886V32.1126L15.2646 29.9526C15.6966 28.5126 16.2726 27.0726 16.9926 25.7766L13.8246 19.4406L19.2966 13.9686L25.6326 17.1366C26.9286 16.4166 28.3686 15.8406 29.8086 15.4086L32.1126 8.64062H39.8886L42.0486 15.2646C43.4886 15.6966 44.9286 16.2726 46.2246 16.9926L52.5606 13.8246L58.0326 19.2966L54.8646 25.6326C55.5846 26.9286 56.1606 28.3686 56.5926 29.8086L63.2166 31.9686V39.7446L56.5926 41.9046C56.1606 43.3446 55.5846 44.7846 54.8646 46.0806L58.0326 52.4166L52.5606 57.8886L46.2246 54.7206C44.9286 55.4406 43.4886 56.0166 42.0486 56.4486L39.8886 63.3606ZM34.1286 60.4806H37.8726L39.8886 54.2886L40.6086 54.1446C42.3366 53.7126 43.9206 52.9926 45.5046 52.1286L46.2246 51.6966L51.9846 54.5766L54.5766 51.9846L51.6966 46.2246L52.1286 45.5046C52.9926 44.0646 53.7126 42.3366 54.1446 40.6086L54.2886 39.8886L60.4806 37.8726V34.1286L54.2886 32.1126L54.1446 31.3926C53.7126 29.6646 52.9926 28.0806 52.1286 26.4966L51.6966 25.7766L54.5766 20.0166L51.9846 17.4246L46.2246 20.3046L45.5046 19.8726C43.9206 19.0086 42.3366 18.2886 40.6086 17.8566L39.8886 17.7126L37.8726 11.5206H34.1286L32.1126 17.7126L31.3926 17.8566C29.6646 18.2886 28.0806 19.0086 26.4966 19.8726L25.7766 20.3046L20.0166 17.4246L17.4246 20.0166L20.3046 25.7766L19.8726 26.4966C19.0086 27.9366 18.2886 29.6646 17.8566 31.3926L17.7126 32.1126L11.5206 34.1286V37.8726L17.7126 39.8886L17.8566 40.6086C18.2886 42.3366 19.0086 43.9206 19.8726 45.5046L20.3046 46.2246L17.4246 51.9846L20.0166 54.5766L25.7766 51.6966L26.4966 52.1286C28.0806 52.9926 29.6646 53.7126 31.3926 54.1446L32.1126 54.2886L34.1286 60.4806Z" fill="white"/>
</svg>
