<svg width="35" height="35" viewBox="0 0 35 35" fill="none" xmlns="http://www.w3.org/2000/svg">
<path d="M11.3743 2.9165H23.6243C28.291 2.9165 32.0827 6.70817 32.0827 11.3748V23.6248C32.0827 25.8681 31.1915 28.0195 29.6053 29.6058C28.019 31.192 25.8676 32.0832 23.6243 32.0832H11.3743C6.70768 32.0832 2.91602 28.2915 2.91602 23.6248V11.3748C2.91602 9.13155 3.80716 6.98014 5.3934 5.39389C6.97965 3.80765 9.13106 2.9165 11.3743 2.9165ZM11.0827 5.83317C9.6903 5.83317 8.35494 6.38629 7.37037 7.37086C6.38581 8.35543 5.83268 9.69078 5.83268 11.0832V23.9165C5.83268 26.8186 8.1806 29.1665 11.0827 29.1665H23.916C25.3084 29.1665 26.6438 28.6134 27.6283 27.6288C28.6129 26.6442 29.166 25.3089 29.166 23.9165V11.0832C29.166 8.18109 26.8181 5.83317 23.916 5.83317H11.0827ZM25.1556 8.02067C25.6391 8.02067 26.1027 8.21273 26.4446 8.55459C26.7865 8.89645 26.9785 9.36012 26.9785 9.84359C26.9785 10.3271 26.7865 10.7907 26.4446 11.1326C26.1027 11.4744 25.6391 11.6665 25.1556 11.6665C24.6721 11.6665 24.2085 11.4744 23.8666 11.1326C23.5247 10.7907 23.3327 10.3271 23.3327 9.84359C23.3327 9.36012 23.5247 8.89645 23.8666 8.55459C24.2085 8.21273 24.6721 8.02067 25.1556 8.02067ZM17.4993 10.2082C19.4332 10.2082 21.2879 10.9764 22.6553 12.3439C24.0228 13.7113 24.791 15.566 24.791 17.4998C24.791 19.4337 24.0228 21.2884 22.6553 22.6558C21.2879 24.0233 19.4332 24.7915 17.4993 24.7915C15.5655 24.7915 13.7108 24.0233 12.3434 22.6558C10.9759 21.2884 10.2077 19.4337 10.2077 17.4998C10.2077 15.566 10.9759 13.7113 12.3434 12.3439C13.7108 10.9764 15.5655 10.2082 17.4993 10.2082ZM17.4993 13.1248C16.339 13.1248 15.2262 13.5858 14.4058 14.4062C13.5853 15.2267 13.1243 16.3395 13.1243 17.4998C13.1243 18.6602 13.5853 19.773 14.4058 20.5934C15.2262 21.4139 16.339 21.8748 17.4993 21.8748C18.6597 21.8748 19.7725 21.4139 20.5929 20.5934C21.4134 19.773 21.8743 18.6602 21.8743 17.4998C21.8743 16.3395 21.4134 15.2267 20.5929 14.4062C19.7725 13.5858 18.6597 13.1248 17.4993 13.1248Z" fill="#C8392F"/>
</svg>
