<svg width="31" height="24" viewBox="0 0 31 24" fill="none" xmlns="http://www.w3.org/2000/svg">
<path d="M10.7368 1.43532C9.82741 0.438366 8.5683 -0.0108775 7.23289 0.000199771C5.96584 0.0100462 4.73217 0.42975 3.70199 0.988536C2.65124 1.56125 1.75528 2.28752 1.06455 3.12644C0.412738 3.92523 -0.0578366 4.86926 0.0057545 5.79113C0.312582 10.2257 3.53506 14.9643 8.06116 18.4709C12.5841 21.9737 18.6237 24.4083 24.722 23.943C25.9176 23.852 27.0479 23.3806 27.9715 22.7799C28.9269 22.1534 29.7074 21.3829 30.2656 20.5152C30.8061 19.6635 31.1289 18.6813 30.9508 17.725C30.7664 16.7281 30.0462 15.837 28.7219 15.2462C28.4476 15.1229 28.1762 14.9957 27.908 14.8646C27.6695 14.7502 27.4151 14.6258 27.1067 14.4831C26.4768 14.1824 25.812 13.9277 25.1211 13.7224C24.4104 13.5218 23.5981 13.3901 22.7523 13.48C21.8763 13.5735 21.0624 13.8935 20.3581 14.4671C19.816 14.9102 19.0179 15.048 17.8955 14.7969C16.7541 14.5409 15.4695 13.9058 14.3535 13.0467C13.2375 12.1901 12.3933 11.1882 12.0324 10.2836C11.6763 9.38754 11.8337 8.72906 12.3901 8.2749C13.1421 7.66196 13.5427 6.98009 13.627 6.25884C13.7096 5.55728 13.4839 4.89757 13.1612 4.32155C12.6779 3.46122 11.8576 2.60581 11.2153 1.93872C11.0538 1.77193 10.8948 1.60371 10.7383 1.43409" fill="#D75044"/>
</svg>
